<svg width="160" height="160" viewBox="0 0 160 160" fill="none" xmlns="http://www.w3.org/2000/svg">
<path d="M29.4143 43.528V67.624C29.4143 74.664 26.9823 78.536 22.1183 79.24C26.9823 79.816 29.4143 83.592 29.4143 90.568V114.952C29.4143 116.04 29.6383 116.808 30.0863 117.256C30.5343 117.704 31.3343 117.928 32.4863 117.928H36.8063V124.744H28.9343C25.9263 124.744 23.7823 124.008 22.5023 122.536C21.2863 121.064 20.6783 118.92 20.6783 116.104V92.968C20.6783 89.384 20.0383 86.76 18.7583 85.096C17.4783 83.432 15.4623 82.6 12.7103 82.6H11.0783V75.88H12.7103C15.4623 75.88 17.4783 75.048 18.7583 73.384C20.0383 71.656 20.6783 68.968 20.6783 65.32V42.472C20.6783 36.712 23.4303 33.832 28.9343 33.832H36.8063V40.648H32.4863C31.3343 40.648 30.5343 40.872 30.0863 41.32C29.6383 41.704 29.4143 42.44 29.4143 43.528ZM70.2338 67.72H61.4018V58.504C61.4018 57.352 61.2098 56.616 60.8258 56.296C60.5058 55.912 59.7698 55.72 58.6178 55.72H53.7218C52.5698 55.72 51.8018 55.912 51.4178 56.296C51.0338 56.616 50.8418 57.352 50.8418 58.504V99.496C50.8418 100.648 51.0338 101.416 51.4178 101.8C51.8018 102.12 52.5698 102.28 53.7218 102.28H58.6178C59.7698 102.28 60.5058 102.12 60.8258 101.8C61.2098 101.416 61.4018 100.648 61.4018 99.496V90.376H70.2338V100.552C70.2338 106.248 67.2258 109.096 61.2098 109.096H51.0338C45.0818 109.096 42.1058 106.248 42.1058 100.552V57.352C42.1058 51.72 45.0818 48.904 51.0338 48.904H61.2098C67.2258 48.904 70.2338 51.72 70.2338 57.352V67.72ZM118.517 70.984H112.181L109.301 86.92H115.349V93.544H108.149L105.365 109H97.6853L100.469 93.544H89.6213L86.8373 109H79.0613L81.8453 93.544H76.6613V86.92H82.9973L85.8773 70.984H79.9253V64.36H87.0293L89.8133 48.904H97.4933L94.7093 64.36H105.653L108.437 48.904H116.117L113.333 64.36H118.517V70.984ZM101.621 86.92L104.501 70.984H93.5573L90.7733 86.92H101.621ZM129.47 67.624V43.528C129.47 42.44 129.246 41.704 128.798 41.32C128.35 40.872 127.55 40.648 126.398 40.648H122.078V33.832H129.95C132.958 33.832 135.07 34.6 136.286 36.136C137.502 37.608 138.11 39.72 138.11 42.472V65.32C138.11 68.968 138.75 71.656 140.03 73.384C141.31 75.048 143.358 75.88 146.174 75.88H147.71V82.6H146.174C143.358 82.6 141.31 83.432 140.03 85.096C138.75 86.76 138.11 89.384 138.11 92.968V116.104C138.11 118.92 137.502 121.064 136.286 122.536C135.07 124.008 132.958 124.744 129.95 124.744H122.078V117.928H126.398C127.55 117.928 128.35 117.704 128.798 117.256C129.246 116.808 129.47 116.04 129.47 114.952V90.568C129.47 83.592 131.902 79.816 136.766 79.24C131.902 78.536 129.47 74.664 129.47 67.624Z" fill="#388A34"/>
</svg>
